<?xml version="1.0" standalone="no"?>
<!DOCTYPE svg PUBLIC "-//W3C//DTD SVG 1.1//EN" "http://www.w3.org/Graphics/SVG/1.1/DTD/svg11.dtd">
<svg xmlns="http://www.w3.org/2000/svg" class="icon" height="512" viewBox="0 0 1024 1024" version="1.1" fill="#0074d9">
  <path d="M714.596 494.71h-184.851c-9.553 0-14.142-6.43-10.211-14.291l10.58-21.107c26.553-52.995 74.669-148.977 85.059-169.847 12.525-25.129-5.359-42.583-22.78-42.583h-104.419c-9.547 0-20.485 7.17-24.304 15.91 0 0-121.588 278.303-128.706 293.697-8.604 18.602 0.075 42.466 23.945 42.292 36.012-0.257 178.297 0.547 178.297 0.547 9.547 0.058 16.158 7.824 14.688 17.258 0 0-30.807 197.81-33.149 209.568-1.996 10.065 11.011 14.688 16.711 5.993 6.16-9.428 138.903-208.426 199.034-295.949 15.033-21.878-1.604-41.484-19.91-41.484z" fill="#0074d9"/>
  <path d="M512 15.559c-274.173 0-496.441 222.26-496.441 496.441s222.26 496.441 496.441 496.441c274.173 0 496.441-222.26 496.441-496.441s-222.259-496.441-496.441-496.441zM512 954.782c-244.545 0-442.782-198.241-442.782-442.782s198.241-442.782 442.782-442.782c244.545 0 442.782 198.241 442.782 442.782s-198.242 442.782-442.782 442.782z" fill="#0074d9"/>
</svg>
