<?xml version="1.0" encoding="utf-8"?>
<!-- Generator: Adobe Illustrator 23.0.4, SVG Export Plug-In . SVG Version: 6.00 Build 0)  -->
<svg version="1.1" id="Layer_1" xmlns="http://www.w3.org/2000/svg" xmlns:xlink="http://www.w3.org/1999/xlink" x="0px" y="0px"
	 viewBox="0 0 144 144" style="enable-background:new 0 0 144 144;" xml:space="preserve">
<style type="text/css">
	.st0{fill:#ED1C24;}
	.st1{fill:#ED1C24;}
</style>
<path class="st0" d="M87.6,142.7c0,0,37.6-3.7,44.2-31.3c6.8-28.6-15.7-40.3-17.7-51.9c-2.4-14.4,7.3-28.1,7.3-28.1s-15,1-23.8,12.8
	c-6.4,8.6-4.6,22.9-4.6,22.9s-11-11.6-10.4-28.4c0.6-17.4,22-37.6,22-37.6s-44.9,5.8-61,42.2C33.9,65.2,42.2,93,42.2,93
	s-7.7-4.9-13.1-17.1c-4.9-11-2.4-25.7-2.4-25.7S3.9,71,16.2,104.6c11.9,32.4,55.9,37.6,55.9,37.6s-13.5-13.2-15-32.7
	c-1.8-25.1,15.7-44.8,15.7-44.8s4.2,18,11.9,25.7c8.6,8.6,18.8,12.4,17.6,28.9C101.5,131,87.6,142.7,87.6,142.7z"/>
<path class="st1" d="M102.4,119.3c1.2-16.5-9-20.3-17.6-28.9c-7.7-7.7-11.9-25.7-11.9-25.7s-17.6,19.7-15.7,44.8
	c1.4,19.5,15,32.7,15,32.7s2.9,0.5,7.1,0.7c4.1,0.1,8.4-0.2,8.4-0.2S101.5,131,102.4,119.3z"/>
</svg>
