<?xml version="1.0" encoding="utf-8"?>
<!-- Generator: Adobe Illustrator 24.1.2, SVG Export Plug-In . SVG Version: 6.00 Build 0)  -->
<svg version="1.1" id="Layer_1" xmlns="http://www.w3.org/2000/svg" xmlns:xlink="http://www.w3.org/1999/xlink" x="0px" y="0px"
	 viewBox="0 0 139 139" style="enable-background:new 0 0 139 139;" xml:space="preserve">
<style type="text/css">
	.st0{fill:#010101;}
</style>
<path class="st0" d="M37.8,95.4c0-7.2-5.9-13.1-13.1-13.1s-13.1,5.9-13.1,13.1c0,7.2,5.9,13.1,13.1,13.1
	C32,108.5,37.8,102.6,37.8,95.4 M24.8,101.1c-3.2,0-5.7-2.5-5.7-5.7c0-3.2,2.5-5.7,5.7-5.7s5.7,2.5,5.7,5.7
	C30.4,98.6,28,101.1,24.8,101.1"/>
<path class="st0" d="M115.5,95.4c0-7.2-5.9-13.1-13.1-13.1c-7.2,0-13.1,5.9-13.1,13.1c0,7.2,5.9,13.1,13.1,13.1
	C109.7,108.5,115.5,102.6,115.5,95.4 M102.4,101.1c-3.2,0-5.7-2.5-5.7-5.7c0-3.2,2.5-5.7,5.7-5.7c3.2,0,5.7,2.5,5.7,5.7
	C108.1,98.6,105.5,101.1,102.4,101.1"/>
<path class="st0" d="M66.1,67.7H53.5L47,61l4.5-7.8h14.6V67.7z M132.1,83.8V67.9H73.1V52.4c0-3.5-2.8-6.2-6.2-6.2H53.8
	c0,0-4.3,0-6.3,2.1s-3.2,4.5-3.2,4.5l-8.7,14.9H11.8c0,0-5.5,1-5.5,5.8v10.5H1.6v7.4c0,1.7,1.3,3.1,3.1,3.1h3.6
	c0.5-8.7,7.7-15.7,16.5-15.7s16,6.9,16.5,15.7h44.5c0.5-8.7,7.7-15.7,16.5-15.7s15.9,6.9,16.5,15.7h16c1.7,0,3.1-1.3,3.1-3.1v-7.4
	L132.1,83.8L132.1,83.8z"/>
<path class="st0" d="M131.2,44.9h-15.1v-7.2c0-3.8-2.7-7-5.9-7H83.8c-3.3,0-5.9,3.2-5.9,7v26.2h38.4l0,0h14.9L131.2,44.9L131.2,44.9
	z"/>
<rect x="54.7" y="36.3" class="st0" width="10.2" height="6.6"/>
</svg>
