<?xml version="1.0" encoding="utf-8"?>
<!-- Generator: Adobe Illustrator 23.0.4, SVG Export Plug-In . SVG Version: 6.00 Build 0)  -->
<svg version="1.1" id="Layer_1" xmlns="http://www.w3.org/2000/svg" xmlns:xlink="http://www.w3.org/1999/xlink" x="0px" y="0px"
	 viewBox="0 0 144 144" style="enable-background:new 0 0 144 144;" xml:space="preserve">
<path d="M25.8,39.8c5.1-10.7,1.9-26-8-32.2c3.2-0.4,6.4,0.2,9.5,1.7c9.2,4.2,13.2,15.4,9.2,24.4c-2.4,5.5-9.1,10.4-14.2,11.5
	C23.7,43.5,24.9,41.8,25.8,39.8z"/>
<path d="M134.5,84.6c-8.4-17.3-26.4-25.8-26.4-25.8s-1.9-1.3-2.7-0.3c-0.8,1,0.3,3,0.3,3s16.8,24,13.1,44.2
	c-2.9,15.7-18.6,22.4-18.6,22.4s16.8-23.9,3.7-45.5c-3.2-5.3-7.4-15.6-6.3-27c1.4-14.8,18.6-21.8,18.6-21.8s1.4-0.7,1.3-1.6
	c-0.1-1.3-1.5-1.1-1.5-1.1s-20.7-1-34.2,20.2C74.5,62.6,75.5,76.2,66.5,86c-9.9,10.8-22.1,14.8-22.1,14.8S64,78.7,65.2,50.1
	C66.1,27.5,53.9,3.9,53.9,3.9s-1.8-3.2-3.2-2.9c-1.9,0.3-1.4,3.4-1.4,3.4s3.6,27-5.9,38.9C34.4,54.7,7.4,62.7,3.9,91.4
	c-4.5,37.4,15.8,51.6,15.8,51.6H66c-1.8-8.6-2.2-17.4-0.1-24.4c4.2-13.8,16.2-24.6,16.2-24.6s-7.9,13-6.3,27.4
	c0.9,8.2,4.1,17.5,12.4,21.6h33.3C125.9,140.2,147.9,112.1,134.5,84.6z"/>
</svg>
